<?xml version="1.0" encoding="utf-8"?>
<!-- Generator: Adobe Illustrator 16.0.4, SVG Export Plug-In . SVG Version: 6.00 Build 0)  -->
<!DOCTYPE svg PUBLIC "-//W3C//DTD SVG 1.1//EN" "http://www.w3.org/Graphics/SVG/1.1/DTD/svg11.dtd">
<svg version="1.1" id="Layer_1" xmlns="http://www.w3.org/2000/svg" xmlns:xlink="http://www.w3.org/1999/xlink" x="0px" y="0px"
	 width="51.959px" height="76.566px" viewBox="0 0 51.959 76.566" enable-background="new 0 0 51.959 76.566" xml:space="preserve">
<g>
	<g>
		<path fill="#F8A586" d="M48.756,11.66c0.049-0.064,0.104-0.125,0.164-0.182c0.584-0.543,1.497-0.508,2.04,0.076
			c1.053,1.133,1.297,2.832,0.622,4.33c-0.326,0.727-1.182,1.051-1.909,0.723c-0.727-0.328-1.05-1.182-0.723-1.908
			c0.19-0.424,0.147-0.908-0.104-1.18C48.359,12.996,48.336,12.207,48.756,11.66z"/>
	</g>
	<g>
		<path fill="#F8A586" d="M7.807,29.73c0.049-0.064,0.104-0.125,0.164-0.182c0.584-0.543,1.498-0.508,2.04,0.076
			c1.053,1.133,1.297,2.832,0.622,4.33c-0.326,0.727-1.182,1.051-1.909,0.723c-0.727-0.328-1.05-1.182-0.722-1.908
			c0.189-0.424,0.146-0.908-0.105-1.182C7.41,31.066,7.387,30.277,7.807,29.73z"/>
	</g>
	<path fill="none" stroke="#11122D" stroke-width="3.0476" stroke-linecap="round" stroke-miterlimit="10" d="M48.202,21.779
		l-1.883,5.729c-0.371,1.127-1.403,1.902-2.589,1.945l0,0c-1.439,0.053-2.688-0.984-2.903-2.408l-1.194-7.93"/>
	
		<line fill="none" stroke="#11122D" stroke-width="3.0476" stroke-miterlimit="10" x1="49.566" y1="17.41" x2="48.202" y2="21.779"/>
	
		<line fill="none" stroke="#EBE5E1" stroke-width="3.0476" stroke-miterlimit="10" x1="50.117" y1="15.646" x2="49.566" y2="17.41"/>
	<path fill="none" stroke="#6B9C40" stroke-width="2.6122" stroke-linecap="round" stroke-miterlimit="10" d="M5.375,67.527
		c-0.849,0.436-1.729,0.867-2.645,1.295"/>
	<path fill="#11122D" d="M4.431,72.703c-0.269-0.615-0.023-1.324,0.547-1.648l0.192-0.086c0.39-0.17,0.568-0.625,0.398-1.016
		l-0.185-0.424c-0.12-0.275-0.44-0.4-0.716-0.281l-0.136,0.061c-0.455,0.166-0.969-0.043-1.165-0.492l-0.522-1.197
		C2.659,67.193,2.164,67,1.739,67.184C1.002,67.506,0,67.943,0,67.943l2.135,4.893l0.813,1.865l0.813,1.865l0.405-0.178l0.048-0.021
		C5.057,76,5.441,75.021,5.074,74.18L4.431,72.703z"/>
	<path fill="none" stroke="#2E2B33" stroke-width="3.9184" stroke-miterlimit="10" d="M9.915,64.955
		c-1.4,0.883-2.91,1.734-4.54,2.572"/>
	<path fill="none" stroke="#2E2B33" stroke-width="3.9184" stroke-linecap="round" stroke-miterlimit="10" d="M22.63,51.428
		c-2.943,5.684-6.892,9.859-12.715,13.527"/>
	<path fill="none" stroke="#11122D" stroke-width="3.9184" stroke-linecap="round" stroke-miterlimit="10" d="M26.655,40.756
		c-1.141,4.1-2.437,7.605-4.025,10.672"/>
	<path fill="#11122D" d="M23.938,34.369c3.314,0.816,5.165,4.445,4.132,8.104l-0.382,1.352l-9.564-2.357
		c-1.381-0.342-2.112-1.879-1.472-3.148C18.457,34.742,21.312,33.721,23.938,34.369z"/>
	<path fill="#EBE5E1" d="M35.726,14.525l0.653,1.447c1.511,0.531,2.99,1.186,4.313,1.92l-5.888,9.273l-2.475,2.809l-8.718-2.15
		l-0.188-6.934l2.471-6.648c2.629,0,5.413,0.34,7.804,0.93L35.726,14.525z"/>
	<path fill="#D8D1BD" d="M36.397,15.98l-1.458,3.23l3.066-1.85l0.343-0.615C37.711,16.471,37.059,16.213,36.397,15.98z"/>
	<g>
		<g>
			<g>
				<path fill="#F8A586" d="M36.548,8.854c-0.864-0.215-1.864,0.279-2.234,1.1l-2.243,4.973l1.819,2.1l1.308-1.328l2.243-4.973
					C37.811,9.902,37.411,9.064,36.548,8.854z"/>
			</g>
		</g>
	</g>
	<polygon fill="#EBE5E1" points="31.341,18.324 30.669,14.572 32.511,13.732 33.89,17.025 	"/>
	<polygon fill="#D8D1BD" points="31.341,18.324 33.903,17.062 34.928,19.209 	"/>
	<path fill="#2E2B33" d="M30.673,14.592l1.797,10.094l3.928-8.705c1.504,0.529,2.978,1.18,4.295,1.912l-5.453,9.379l-5.639,15.104
		l-14.716-3.629l2.312-6.605c2.199-6.281,5.117-12.287,8.697-17.898l0,0C27.472,14.242,29.103,14.367,30.673,14.592z"/>
	<path fill="#929497" d="M30.946,26.008c-0.011,0.305,0.229,0.551,0.534,0.551c0.305,0,0.561-0.246,0.57-0.551
		s-0.229-0.551-0.533-0.551C31.211,25.457,30.956,25.703,30.946,26.008z"/>
	<path fill="#929497" d="M29.205,30.633c-0.011,0.305,0.228,0.551,0.534,0.551c0.305,0,0.56-0.246,0.57-0.551
		c0.01-0.303-0.229-0.549-0.534-0.549S29.215,30.33,29.205,30.633z"/>
	<polygon fill="#6B9C40" points="34.013,19.391 33.675,21.984 32.47,24.686 31.933,21.674 33.311,19.24 32.336,17.816 
		33.838,17.145 34.491,18.346 	"/>
	<path fill="#11122D" d="M17.525,32.207c-0.149,0.527,0.162,1.061,0.697,1.191l3.674,0.906c0.533,0.133,1.087-0.188,1.236-0.715l0,0
		c0.148-0.527-0.164-1.061-0.697-1.191l-3.674-0.906C18.227,31.359,17.674,31.68,17.525,32.207L17.525,32.207z"/>
	<path fill="#2E2B33" d="M17.795,31.254c-0.148,0.525,0.162,1.061,0.697,1.191l3.674,0.906c0.533,0.131,1.088-0.189,1.236-0.715l0,0
		c0.148-0.527-0.164-1.062-0.697-1.193l-3.674-0.906C18.496,30.406,17.943,30.727,17.795,31.254L17.795,31.254z"/>
	<polygon fill="#11122D" points="25.051,41.365 22.502,40.736 27.114,34.061 	"/>
	<g>
		<path fill="#F8A586" d="M44.283,5.465l-1.616,6.555c-0.529,1.541-1.635,2.809-2.998,3.525c-0.177-0.006-2.682-0.66-2.72-0.67
			c-2.778-0.686-4.477-3.494-3.792-6.273l1.367-5.543L44.283,5.465z"/>
		<g>
			<g>
				<g>
					<path fill="#F8A586" d="M33.068,6.74c-0.776-0.191-1.561,0.283-1.752,1.057c-0.191,0.777,0.283,1.561,1.06,1.752l2.285,0.562
						l0.607-2.828L33.068,6.74z"/>
				</g>
			</g>
		</g>
		<path fill="#11122D" d="M46.637,2.162L38.555,0.17c-1.308-0.322-2.621,0.021-3.587,0.812c-0.188-0.449-0.576-0.811-1.087-0.938
			c-0.165-0.039-0.331-0.053-0.492-0.041l0.334,0.553c0.208,0.346,0.3,0.949,0.203,1.342l-0.209,0.846
			c-0.004,0.012-0.009,0.021-0.013,0.033l-0.961,3.895l0.56,0.137l-0.247,1.004c-0.114,0.463,0.168,0.928,0.63,1.041
			c0.461,0.115,0.926-0.166,1.04-0.629l0.148-0.604c0.268-0.602,0.935-0.945,1.597-0.783l0.408-1.654
			c0.267-0.6,0.932-0.941,1.594-0.779l0.002-0.01l5.729,1.412c0.922,0.227,1.853-0.287,2.165-1.164l-1.459-0.359
			C45.688,3.805,46.313,3.072,46.637,2.162z"/>
		<circle fill="#11122D" cx="41.896" cy="8.413" r="0.346"/>
		<circle fill="#11122D" cx="38.299" cy="7.526" r="0.346"/>
		<path fill="none" stroke="#EC8D75" stroke-width="0.566" stroke-linecap="round" d="M39.389,11.613
			c-0.561-0.094-1.127-0.074-1.54,0.008"/>
	</g>
	<path fill="none" stroke="#6B9C40" stroke-width="2.6122" stroke-linecap="round" stroke-miterlimit="10" d="M43.034,62.391
		c0.199,1.057,0.384,2.131,0.56,3.223"/>
	<path fill="#2E2B33" d="M48.1,64.719c-0.668,0.102-1.295-0.322-1.463-0.961c-0.001,0.002-0.033-0.209-0.033-0.209
		c-0.064-0.424-0.461-0.715-0.885-0.65l-0.879,0.133c-0.298,0.047-0.503,0.324-0.458,0.623l0.022,0.148
		c0.045,0.486-0.291,0.932-0.779,1.006l-1.302,0.199c-0.462,0.07-0.779,0.5-0.709,0.961c0.122,0.801,0.288,1.891,0.288,1.891
		l4.479-0.682l2.025-0.309l2.025-0.309l-0.067-0.441l-0.008-0.051c-0.139-0.914-0.992-1.543-1.906-1.404L48.1,64.719z"/>
	<path fill="none" stroke="#2E2B33" stroke-width="3.9184" stroke-miterlimit="10" d="M41.738,56.674
		c0.501,1.822,0.924,3.736,1.296,5.717"/>
	<path fill="none" stroke="#2E2B33" stroke-width="3.9184" stroke-linecap="round" stroke-miterlimit="10" d="M18.255,39.537
		c14.721-1.297,20.499,6.285,23.483,17.137"/>
	<path fill="none" stroke="#2E2B33" stroke-width="3.0476" stroke-linecap="round" stroke-miterlimit="10" d="M11.104,24.107
		l1.644-4.418c1.128-3.033,4.154-4.928,7.376-4.619l6.93,0.688"/>
	
		<line fill="none" stroke="#2E2B33" stroke-width="3.0476" stroke-miterlimit="10" x1="9.525" y1="28.354" x2="11.104" y2="24.107"/>
	<line fill="none" stroke="#EBE5E1" stroke-width="3.0476" stroke-miterlimit="10" x1="8.916" y1="29.992" x2="9.525" y2="28.354"/>
</g>
</svg>
