<svg xmlns="http://www.w3.org/2000/svg" xmlns:xlink="http://www.w3.org/1999/xlink" version="1.1" id="Слой_1" x="0" y="0" width="258" height="174.46" viewBox="0 0 258 174.46" enable-background="new 0 0 258 174.455" xml:space="preserve">
  <g class="cloud cloud-2" opacity="0.1">
    <path fill="#FFFFFF" d="M217.07 28.56c0 5.63-6.13 10.2-13.69 10.2H78.65c-7.56 0-13.69-4.57-13.69-10.2v-0.21c0-5.63 6.13-10.2 13.69-10.2h124.73c7.56 0 13.69 4.57 13.69 10.2V28.56z"/>
    <path fill="#FFFFFF" d="M196.07 52.05c0 3.55-3.86 6.42-8.62 6.42h-78.53c-4.76 0-8.62-2.87-8.62-6.42v-0.13c0-3.55 3.86-6.42 8.62-6.42h78.53c4.76 0 8.62 2.88 8.62 6.42V52.05z"/>
    <path fill="#FFFFFF" d="M205.72 6.55c0 3.55-3.86 6.42-8.62 6.42h-78.53c-4.76 0-8.62-2.87-8.62-6.42V6.42c0-3.55 3.86-6.42 8.62-6.42H197.1c4.76 0 8.62 2.87 8.62 6.42V6.55z"/>
    <path fill="#FFFFFF" d="M182.42 49.39c-7.95-2.19-15.9-2.19-23.85 0 3.2-5.36 2.95-10.73-0.74-16.09 8.44 2.32 16.88 2.32 25.32 0C179.47 38.66 179.22 44.02 182.42 49.39z"/>
    <path fill="#FFFFFF" d="M157.1 24.2c-7.95-2.18-15.9-2.18-23.84 0 3.19-5.36 2.95-10.73-0.74-16.09 8.44 2.32 16.88 2.32 25.32 0C154.15 13.48 153.9 18.84 157.1 24.2z"/>
  </g>
</svg>
