<svg xmlns="http://www.w3.org/2000/svg" xmlns:xlink="http://www.w3.org/1999/xlink" version="1.1" id="Слой_1" x="0" y="0" width="258" height="174.46" viewBox="0 0 258 174.46" enable-background="new 0 0 258 174.455" xml:space="preserve">
  <g class="cloud cloud-1" opacity="0.1">
    <path fill="#FFFFFF" d="M258 113.4c0 9.17-9.97 16.6-22.28 16.6H32.76c-12.3 0-22.28-7.43-22.28-16.6v-0.34c0-9.17 9.97-16.6 22.28-16.6h202.97c12.31 0 22.28 7.43 22.28 16.6V113.4z"/>
    <path fill="#FFFFFF" d="M223.83 151.63c0 5.77-6.28 10.45-14.02 10.45H82.01c-7.75 0-14.02-4.68-14.02-10.45v-0.21c0-5.77 6.28-10.45 14.03-10.45h127.8c7.74 0 14.02 4.68 14.02 10.45V151.63z"/>
    <path fill="#FFFFFF" d="M239.54 77.59c0 5.77-6.28 10.45-14.03 10.45H97.72c-7.75 0-14.03-4.68-14.03-10.45v-0.21c0-5.77 6.28-10.45 14.03-10.45H225.51c7.75 0 14.03 4.68 14.03 10.45V77.59z"/>
    <path fill="#FFFFFF" d="M201.62 147.29c-12.94-3.56-25.87-3.56-38.8 0 5.2-8.73 4.8-17.45-1.2-26.18 13.73 3.78 27.47 3.78 41.2 0C196.81 129.84 196.42 138.57 201.62 147.29z"/>
    <path fill="#FFFFFF" d="M160.41 106.31c-12.93-3.55-25.87-3.55-38.8 0 5.2-8.73 4.8-17.45-1.2-26.18 13.73 3.78 27.47 3.78 41.2 0C155.61 88.86 155.21 97.59 160.41 106.31z"/>
  </g>
</svg>