<svg xmlns="http://www.w3.org/2000/svg" xmlns:xlink="http://www.w3.org/1999/xlink" version="1.1" id="Layer_1" x="0" y="0" width="51.96" height="76.57" viewBox="0 0 51.96 76.57" enable-background="new 0 0 51.959 76.566" xml:space="preserve">
  <path fill="#F8A586" d="M48.76 11.66c0.05-0.06 0.1-0.12 0.16-0.18 0.58-0.54 1.5-0.51 2.04 0.08 1.05 1.13 1.3 2.83 0.62 4.33 -0.33 0.73-1.18 1.05-1.91 0.72 -0.73-0.33-1.05-1.18-0.72-1.91 0.19-0.42 0.15-0.91-0.1-1.18C48.36 13 48.34 12.21 48.76 11.66z"/>
  <path fill="#F8A586" d="M7.81 29.73c0.05-0.06 0.1-0.12 0.16-0.18 0.58-0.54 1.5-0.51 2.04 0.08 1.05 1.13 1.3 2.83 0.62 4.33 -0.33 0.73-1.18 1.05-1.91 0.72 -0.73-0.33-1.05-1.18-0.72-1.91 0.19-0.42 0.15-0.91-0.1-1.18C7.41 31.07 7.39 30.28 7.81 29.73z"/>
  <path fill="none" stroke="#11122D" stroke-width="3.05" stroke-linecap="round" stroke-miterlimit="10" d="M48.2 21.78l-1.88 5.73c-0.37 1.13-1.4 1.9-2.59 1.95l0 0c-1.44 0.05-2.69-0.98-2.9-2.41l-1.19-7.93"/>
  <line fill="none" stroke="#11122D" stroke-width="3.05" stroke-miterlimit="10" x1="49.57" y1="17.41" x2="48.2" y2="21.78"/>
  <line fill="none" stroke="#EBE5E1" stroke-width="3.05" stroke-miterlimit="10" x1="50.12" y1="15.65" x2="49.57" y2="17.41"/>
  <path fill="none" stroke="#6B9C40" stroke-width="2.61" stroke-linecap="round" stroke-miterlimit="10" d="M5.38 67.53c-0.85 0.44-1.73 0.87-2.64 1.3"/>
  <path fill="#11122D" d="M4.43 72.7c-0.27-0.61-0.02-1.32 0.55-1.65l0.19-0.09c0.39-0.17 0.57-0.62 0.4-1.02l-0.18-0.42c-0.12-0.28-0.44-0.4-0.72-0.28l-0.14 0.06c-0.45 0.17-0.97-0.04-1.16-0.49l-0.52-1.2C2.66 67.19 2.16 67 1.74 67.18 1 67.51 0 67.94 0 67.94l2.13 4.89 0.81 1.87 0.81 1.87 0.41-0.18 0.05-0.02C5.06 76 5.44 75.02 5.07 74.18L4.43 72.7z"/>
  <path fill="none" stroke="#2E2B33" stroke-width="3.92" stroke-miterlimit="10" d="M9.91 64.96c-1.4 0.88-2.91 1.73-4.54 2.57"/>
  <path fill="none" stroke="#2E2B33" stroke-width="3.92" stroke-linecap="round" stroke-miterlimit="10" d="M22.63 51.43c-2.94 5.68-6.89 9.86-12.71 13.53"/>
  <path fill="none" stroke="#11122D" stroke-width="3.92" stroke-linecap="round" stroke-miterlimit="10" d="M26.66 40.76c-1.14 4.1-2.44 7.61-4.03 10.67"/>
  <path fill="#11122D" d="M23.94 34.37c3.31 0.82 5.17 4.45 4.13 8.1l-0.38 1.35 -9.56-2.36c-1.38-0.34-2.11-1.88-1.47-3.15C18.46 34.74 21.31 33.72 23.94 34.37z"/>
  <path fill="#EBE5E1" d="M35.73 14.53l0.65 1.45c1.51 0.53 2.99 1.19 4.31 1.92l-5.89 9.27 -2.47 2.81 -8.72-2.15 -0.19-6.93 2.47-6.65c2.63 0 5.41 0.34 7.8 0.93L35.73 14.53z"/>
  <path fill="#D8D1BD" d="M36.4 15.98l-1.46 3.23 3.07-1.85 0.34-0.61C37.71 16.47 37.06 16.21 36.4 15.98z"/>
  <path fill="#F8A586" d="M36.55 8.85c-0.86-0.21-1.86 0.28-2.23 1.1l-2.24 4.97 1.82 2.1 1.31-1.33 2.24-4.97C37.81 9.9 37.41 9.06 36.55 8.85z"/>
  <polygon fill="#EBE5E1" points="31.34 18.32 30.67 14.57 32.51 13.73 33.89 17.02 "/>
  <polygon fill="#D8D1BD" points="31.34 18.32 33.9 17.06 34.93 19.21 "/>
  <path fill="#2E2B33" d="M30.67 14.59l1.8 10.09 3.93-8.7c1.5 0.53 2.98 1.18 4.3 1.91l-5.45 9.38 -5.64 15.1 -14.72-3.63 2.31-6.6c2.2-6.28 5.12-12.29 8.7-17.9l0 0C27.47 14.24 29.1 14.37 30.67 14.59z"/>
  <path fill="#929497" d="M30.95 26.01c-0.01 0.31 0.23 0.55 0.53 0.55 0.31 0 0.56-0.25 0.57-0.55s-0.23-0.55-0.53-0.55C31.21 25.46 30.96 25.7 30.95 26.01z"/>
  <path fill="#929497" d="M29.21 30.63c-0.01 0.31 0.23 0.55 0.53 0.55 0.31 0 0.56-0.25 0.57-0.55 0.01-0.3-0.23-0.55-0.53-0.55S29.22 30.33 29.21 30.63z"/>
  <polygon fill="#6B9C40" points="34.01 19.39 33.67 21.98 32.47 24.69 31.93 21.67 33.31 19.24 32.34 17.82 33.84 17.15 34.49 18.35 "/>
  <path fill="#11122D" d="M17.52 32.21c-0.15 0.53 0.16 1.06 0.7 1.19l3.67 0.91c0.53 0.13 1.09-0.19 1.24-0.71l0 0c0.15-0.53-0.16-1.06-0.7-1.19l-3.67-0.91C18.23 31.36 17.67 31.68 17.52 32.21L17.52 32.21z"/>
  <path fill="#2E2B33" d="M17.8 31.25c-0.15 0.53 0.16 1.06 0.7 1.19l3.67 0.91c0.53 0.13 1.09-0.19 1.24-0.71l0 0c0.15-0.53-0.16-1.06-0.7-1.19l-3.67-0.91C18.5 30.41 17.94 30.73 17.8 31.25L17.8 31.25z"/>
  <polygon fill="#11122D" points="25.05 41.37 22.5 40.74 27.11 34.06 "/>
  <path fill="#F8A586" d="M44.28 5.47l-1.62 6.56c-0.53 1.54-1.63 2.81-3 3.53 -0.18-0.01-2.68-0.66-2.72-0.67 -2.78-0.69-4.48-3.49-3.79-6.27l1.37-5.54L44.28 5.47z"/>
  <path fill="#F8A586" d="M33.07 6.74c-0.78-0.19-1.56 0.28-1.75 1.06 -0.19 0.78 0.28 1.56 1.06 1.75l2.29 0.56 0.61-2.83L33.07 6.74z"/>
  <path fill="#11122D" d="M46.64 2.16L38.56 0.17c-1.31-0.32-2.62 0.02-3.59 0.81 -0.19-0.45-0.58-0.81-1.09-0.94 -0.16-0.04-0.33-0.05-0.49-0.04l0.33 0.55c0.21 0.35 0.3 0.95 0.2 1.34l-0.21 0.85c0 0.01-0.01 0.02-0.01 0.03l-0.96 3.9 0.56 0.14 -0.25 1c-0.11 0.46 0.17 0.93 0.63 1.04 0.46 0.12 0.93-0.17 1.04-0.63l0.15-0.6c0.27-0.6 0.94-0.94 1.6-0.78l0.41-1.65c0.27-0.6 0.93-0.94 1.59-0.78l0-0.01 5.73 1.41c0.92 0.23 1.85-0.29 2.17-1.16l-1.46-0.36C45.69 3.81 46.31 3.07 46.64 2.16z"/>
  <circle fill="#11122D" cx="41.9" cy="8.41" r="0.35"/>
  <circle fill="#11122D" cx="38.3" cy="7.53" r="0.35"/>
  <path fill="none" stroke="#EC8D75" stroke-width="0.57" stroke-linecap="round" d="M39.39 11.61c-0.56-0.09-1.13-0.07-1.54 0.01"/>
  <path fill="none" stroke="#6B9C40" stroke-width="2.61" stroke-linecap="round" stroke-miterlimit="10" d="M43.03 62.39c0.2 1.06 0.38 2.13 0.56 3.22"/>
  <path fill="#2E2B33" d="M48.1 64.72c-0.67 0.1-1.29-0.32-1.46-0.96 0 0-0.03-0.21-0.03-0.21 -0.06-0.42-0.46-0.71-0.88-0.65l-0.88 0.13c-0.3 0.05-0.5 0.32-0.46 0.62l0.02 0.15c0.05 0.49-0.29 0.93-0.78 1.01l-1.3 0.2c-0.46 0.07-0.78 0.5-0.71 0.96 0.12 0.8 0.29 1.89 0.29 1.89l4.48-0.68 2.03-0.31 2.03-0.31 -0.07-0.44 -0.01-0.05c-0.14-0.91-0.99-1.54-1.91-1.4L48.1 64.72z"/>
  <path fill="none" stroke="#2E2B33" stroke-width="3.92" stroke-miterlimit="10" d="M41.74 56.67c0.5 1.82 0.92 3.74 1.3 5.72"/>
  <path fill="none" stroke="#2E2B33" stroke-width="3.92" stroke-linecap="round" stroke-miterlimit="10" d="M18.26 39.54c14.72-1.3 20.5 6.29 23.48 17.14"/>
  <path fill="none" stroke="#2E2B33" stroke-width="3.05" stroke-linecap="round" stroke-miterlimit="10" d="M11.1 24.11l1.64-4.42c1.13-3.03 4.15-4.93 7.38-4.62l6.93 0.69"/>
  <line fill="none" stroke="#2E2B33" stroke-width="3.05" stroke-miterlimit="10" x1="9.53" y1="28.35" x2="11.1" y2="24.11"/>
  <line fill="none" stroke="#EBE5E1" stroke-width="3.05" stroke-miterlimit="10" x1="8.92" y1="29.99" x2="9.53" y2="28.35"/>
</svg>
